<svg width="1653" height="993" xmlns="http://www.w3.org/2000/svg" xmlns:xlink="http://www.w3.org/1999/xlink" xml:space="preserve" overflow="hidden"><defs><clipPath id="clip0"><rect x="3012" y="2507" width="1653" height="993"/></clipPath></defs><g clip-path="url(#clip0)" transform="translate(-3012 -2507)"><rect x="3013" y="2508" width="1650" height="990" fill="#FFFFFF"/><g><path d="M3710.62 2746.5 3710.62 3302.5M3834.63 2746.5 3834.63 3302.5M3958.63 2746.5 3958.63 3302.5M4082.63 2746.5 4082.63 3302.5M4206.64 2746.5 4206.64 3302.5M4329.64 2746.5 4329.64 3302.5M4453.65 2746.5 4453.65 3302.5M4577.5 2746.5 4577.5 3302.5" stroke="#D9D9D9" stroke-width="3.4375" stroke-linejoin="round" stroke-miterlimit="10" fill="none"/></g><g><rect x="3587" y="3126" width="894" height="75" fill="#EE4D2E"/></g><g><rect x="3587" y="2848" width="582" height="75" fill="#595959"/></g><g><path d="M0 0 0.000360892 556" stroke="#D9D9D9" stroke-width="3.4375" stroke-linejoin="round" stroke-miterlimit="10" fill="none" fill-rule="evenodd" transform="matrix(1 0 0 -1 3587.5 3302.5)"/></g><g><text fill="#404040" font-family="Ubuntu,Ubuntu_MSFontService,sans-serif" font-weight="400" font-size="41" transform="matrix(1 0 0 1 4508.42 3180)">361</text></g><g><text fill="#404040" font-family="Ubuntu,Ubuntu_MSFontService,sans-serif" font-weight="400" font-size="41" transform="matrix(1 0 0 1 4196.53 2902)">235</text></g><g><text fill="#595959" font-family="Ubuntu,Ubuntu_MSFontService,sans-serif" font-weight="400" font-size="41" transform="matrix(1 0 0 1 3575.69 3366)">0</text></g><g><text fill="#595959" font-family="Ubuntu,Ubuntu_MSFontService,sans-serif" font-weight="400" font-size="41" transform="matrix(1 0 0 1 3687.83 3366)">50</text></g><g><text fill="#595959" font-family="Ubuntu,Ubuntu_MSFontService,sans-serif" font-weight="400" font-size="41" transform="matrix(1 0 0 1 3799.96 3366)">100</text></g><g><text fill="#595959" font-family="Ubuntu,Ubuntu_MSFontService,sans-serif" font-weight="400" font-size="41" transform="matrix(1 0 0 1 3923.73 3366)">150</text></g><g><text fill="#595959" font-family="Ubuntu,Ubuntu_MSFontService,sans-serif" font-weight="400" font-size="41" transform="matrix(1 0 0 1 4047.5 3366)">200</text></g><g><text fill="#595959" font-family="Ubuntu,Ubuntu_MSFontService,sans-serif" font-weight="400" font-size="41" transform="matrix(1 0 0 1 4171.27 3366)">250</text></g><g><text fill="#595959" font-family="Ubuntu,Ubuntu_MSFontService,sans-serif" font-weight="400" font-size="41" transform="matrix(1 0 0 1 4295.03 3366)">300</text></g><g><text fill="#595959" font-family="Ubuntu,Ubuntu_MSFontService,sans-serif" font-weight="400" font-size="41" transform="matrix(1 0 0 1 4418.8 3366)">350</text></g><g><text fill="#595959" font-family="Ubuntu,Ubuntu_MSFontService,sans-serif" font-weight="400" font-size="41" transform="matrix(1 0 0 1 4542.57 3366)">400</text></g><g><text fill="#595959" font-family="Ubuntu,Ubuntu_MSFontService,sans-serif" font-weight="400" font-size="41" transform="matrix(1 0 0 1 3208.5 3177)">fpcap (pcapng.zst)</text></g><g><text fill="#595959" font-family="Ubuntu,Ubuntu_MSFontService,sans-serif" font-weight="400" font-size="41" transform="matrix(1 0 0 1 3042.56 2899)">PcapPlusPlus (pcapng.zstd)</text></g><g><text fill="#595959" font-family="Ubuntu,Ubuntu_MSFontService,sans-serif" font-weight="400" font-size="46" transform="matrix(1 0 0 1 3933.61 3432)"># of iterations</text></g><g><text fill="#595959" font-family="Ubuntu,Ubuntu_MSFontService,sans-serif" font-weight="400" font-size="64" transform="matrix(1 0 0 1 3722.77 2604)">PcapNG</text></g><g><text fill="#595959" font-family="Ubuntu,Ubuntu_MSFontService,sans-serif" font-weight="400" font-size="64" transform="matrix(1 0 0 1 3572.21 2677)">(zstd compressed)</text></g><rect x="3013.5" y="2508.5" width="1650" height="990" stroke="#D9D9D9" stroke-width="3.4375" stroke-linejoin="round" stroke-miterlimit="10" fill="none"/></g></svg>