<svg width="1232" height="603" xmlns="http://www.w3.org/2000/svg" xmlns:xlink="http://www.w3.org/1999/xlink" xml:space="preserve" overflow="hidden"><defs><filter id="fx0" x="-10%" y="-10%" width="120%" height="120%" filterUnits="userSpaceOnUse" primitiveUnits="userSpaceOnUse"><feComponentTransfer color-interpolation-filters="sRGB"><feFuncR type="discrete" tableValues="0 0"/><feFuncG type="discrete" tableValues="0 0"/><feFuncB type="discrete" tableValues="0 0"/><feFuncA type="linear" slope="0.4" intercept="0"/></feComponentTransfer><feGaussianBlur stdDeviation="6.11111 6.11111"/></filter><filter id="fx1" x="-10%" y="-10%" width="120%" height="120%" filterUnits="userSpaceOnUse" primitiveUnits="userSpaceOnUse"><feComponentTransfer color-interpolation-filters="sRGB"><feFuncR type="discrete" tableValues="0 0"/><feFuncG type="discrete" tableValues="0 0"/><feFuncB type="discrete" tableValues="0 0"/><feFuncA type="linear" slope="1" intercept="0"/></feComponentTransfer><feGaussianBlur stdDeviation="7.63889 7.63889"/></filter><filter id="fx2" x="-10%" y="-10%" width="120%" height="120%" filterUnits="userSpaceOnUse" primitiveUnits="userSpaceOnUse"><feComponentTransfer color-interpolation-filters="sRGB"><feFuncR type="discrete" tableValues="0 0"/><feFuncG type="discrete" tableValues="0 0"/><feFuncB type="discrete" tableValues="0 0"/><feFuncA type="linear" slope="0.431373" intercept="0"/></feComponentTransfer><feGaussianBlur stdDeviation="4.04017 4.04017"/></filter><filter id="fx3" x="-10%" y="-10%" width="120%" height="120%" filterUnits="userSpaceOnUse" primitiveUnits="userSpaceOnUse"><feComponentTransfer color-interpolation-filters="sRGB"><feFuncR type="discrete" tableValues="0 0"/><feFuncG type="discrete" tableValues="0 0"/><feFuncB type="discrete" tableValues="0 0"/><feFuncA type="linear" slope="0.431373" intercept="0"/></feComponentTransfer><feGaussianBlur stdDeviation="4.04017 4.04017"/></filter><filter id="fx4" x="-10%" y="-10%" width="120%" height="120%" filterUnits="userSpaceOnUse" primitiveUnits="userSpaceOnUse"><feComponentTransfer color-interpolation-filters="sRGB"><feFuncR type="discrete" tableValues="0 0"/><feFuncG type="discrete" tableValues="0 0"/><feFuncB type="discrete" tableValues="0 0"/><feFuncA type="linear" slope="0.431373" intercept="0"/></feComponentTransfer><feGaussianBlur stdDeviation="4.04017 4.04017"/></filter><clipPath id="clip5"><rect x="-101" y="-70" width="1232" height="603"/></clipPath><clipPath id="clip6"><rect x="1" y="1" width="228" height="228"/></clipPath><clipPath id="clip7"><rect x="187" y="162" width="148" height="226"/></clipPath><clipPath id="clip8"><rect x="187" y="162" width="167" height="226"/></clipPath><clipPath id="clip9"><rect x="179" y="159" width="554" height="231"/></clipPath></defs><g clip-path="url(#clip5)" transform="translate(101 70)"><g filter="url(#fx0)" transform="translate(13 15)"><g><path d="M0 0 897.999 0 953 55.0009 953 330 953 330 55.0007 330 0 274.999 0 0Z" fill="#595959" fill-rule="evenodd" transform="matrix(-1 0 0 1 972.723 19.7228)"/></g></g><path d="M0 0 897.999 0 953 55.0009 953 330 953 330 55.0007 330 0 274.999 0 0Z" fill="#595959" fill-rule="evenodd" transform="matrix(-1 0 0 1 976 25.0001)"/><g clip-path="url(#clip6)" filter="url(#fx1)" transform="translate(395 91)"><g><g><g><g><path d="M170.197 88.4101 151.955 88.4101C147.661 88.4101 141.395 80.7258 137.052 70.1398 133.002 60.2609 132.11 51.0703 134.933 48.2869L148.118 35.1038C148.853 34.3694 148.853 33.1784 148.119 32.4436 147.385 31.7088 146.194 31.7083 145.459 32.4427L132.294 45.607C129.285 48.5728 119.217 47.5441 108.873 43.2149 99.03 39.1001 92.1506 33.4488 92.1506 29.4769L92.1506 10.3641C92.1506 9.32549 91.3087 8.4835 90.27 8.4835 89.2313 8.4835 88.3894 9.32549 88.3894 10.3641L88.3894 29.4769C88.3894 33.4131 81.3201 39.2261 71.5785 43.3014 61.1372 47.672 51.3561 48.6706 48.317 45.6766L35.0849 32.4427C34.3502 31.7083 33.1592 31.7088 32.4248 32.4436 31.6904 33.1784 31.691 34.3694 32.4257 35.1038L45.6766 48.3546C48.5258 51.1643 47.6626 60.0822 43.5779 70.0458 39.2844 80.5152 32.8414 88.4101 28.5893 88.4101L10.3434 88.4101C9.30481 88.4101 8.46281 89.252 8.46281 90.2907 8.46281 91.3294 9.30481 92.1713 10.3434 92.1713L28.5855 92.1713C32.8508 92.1713 39.0813 99.818 43.403 110.353 47.482 120.302 48.381 129.556 45.5393 132.357L32.422 145.474C31.6872 146.208 31.6867 147.399 32.421 148.134 33.1554 148.869 34.3464 148.869 35.0812 148.135L48.1891 135.029C51.2132 132.042 61.3535 133.081 71.7647 137.436 81.5552 141.54 88.3894 147.157 88.3894 151.104L88.3894 170.217C88.3894 171.256 89.2313 172.098 90.27 172.098 91.3087 172.098 92.1506 171.256 92.1506 170.217L92.1506 151.104C92.1506 147.308 98.7667 141.889 108.239 137.925 119.064 133.397 129.6 132.321 132.742 135.42L145.459 148.137C146.194 148.871 147.385 148.871 148.119 148.136 148.853 147.401 148.853 146.21 148.118 145.476L135.384 132.742C132.432 129.833 133.376 120.195 137.628 109.825 141.822 99.596 147.847 92.1713 151.955 92.1713L170.197 92.1713C171.235 92.1713 172.077 91.3294 172.077 90.2907 172.077 89.252 171.235 88.4101 170.197 88.4101ZM133.577 71.5672C135.979 77.8342 139.605 83.5599 144.244 88.4101L130.421 88.4101C127.933 84.413 125.784 80.2145 123.997 75.8588 122.288 71.8333 120.873 67.6895 119.762 63.4598L129.541 53.6806C129.721 59.8471 131.092 65.9208 133.577 71.5672ZM105.426 80.1917C105.843 81.1189 106.255 82.0272 106.594 82.8566 107.361 84.7222 108.187 86.5746 109.039 88.4101L94.8155 88.4101 104.687 78.5387C104.928 79.0878 105.178 79.6445 105.426 80.1917ZM105.385 100.425C105.142 100.952 104.898 101.486 104.661 102.016L94.8155 92.1713 109.029 92.1713C108.174 94.0162 107.35 95.8668 106.596 97.7041 106.255 98.5561 105.819 99.4851 105.385 100.425ZM75.1705 100.448C74.7361 99.5076 74.3073 98.5673 73.9556 97.7079 73.1921 95.848 72.3683 94.0012 71.5221 92.1713L85.734 92.1713 75.8851 102.022C75.65 101.495 75.4131 100.969 75.1705 100.448ZM75.1216 80.1993C75.3698 79.6482 75.6199 79.0916 75.8625 78.5368L85.7358 88.4101 71.5145 88.4101C72.3721 86.5577 73.2071 84.7034 73.9594 82.8622 74.296 82.0291 74.706 81.1208 75.1216 80.1993ZM92.1506 72.2593C95.4286 73.6979 98.635 74.879 101.898 76.0036L92.1506 85.7565ZM88.3894 85.7565 78.6478 76.0017C82.0479 74.8263 85.2017 73.649 88.3932 72.2405ZM88.3894 94.8381 88.3894 108.324C85.1115 106.872 81.8937 105.665 78.6722 104.544ZM92.1506 94.8381 101.866 104.553C98.6689 105.665 95.453 106.872 92.1506 108.337ZM104.862 73.0435C100.539 71.637 96.2955 69.9965 92.1506 68.1294L92.1506 55.2095C93.0571 55.7305 93.9805 56.2457 94.9358 56.7479 100.981 59.8834 107.379 62.2869 113.994 63.9074ZM88.3894 68.1031C84.2496 69.9847 80.0078 71.6334 75.6839 73.0416L66.6287 63.9864C74.2542 62.0477 81.5765 59.0684 88.3894 55.1324ZM72.9833 75.6576C72.594 76.6204 72.1521 77.6341 71.6932 78.6515 71.2588 79.6144 70.8319 80.5641 70.4746 81.4348 69.5342 83.748 68.4698 86.0875 67.3584 88.4101L54.5381 88.4101C56.6245 84.8363 58.46 81.1219 60.0314 77.2937 61.5162 73.8003 62.8138 70.2301 63.9187 66.5986ZM67.364 92.1713C68.4604 94.4582 69.5117 96.7901 70.4764 99.1296 70.8526 100.03 71.2945 101.01 71.7515 102.011 72.2085 103.011 72.6316 103.963 73.0096 104.89L63.8566 114.043C62.7836 110.376 61.5066 106.771 60.0314 103.246 58.466 99.4307 56.638 95.7283 54.5607 92.1657ZM75.7177 107.508C80.031 108.921 84.2614 110.574 88.3894 112.461L88.3894 125.411C81.5512 121.512 74.2114 118.567 66.5741 116.659ZM92.1506 112.461C96.2803 110.575 100.511 108.92 104.824 107.502L113.94 116.616C106.308 118.536 98.9767 121.495 92.1506 125.41ZM107.53 104.89C107.907 103.959 108.345 102.981 108.798 101.999 109.251 101.018 109.703 100.029 110.073 99.1315 111.013 96.8221 112.072 94.4883 113.182 92.1732L125.985 92.1732C123.909 95.7336 122.082 99.4336 120.518 103.246 119.038 106.763 117.753 110.359 116.666 114.017ZM113.189 88.4101C112.091 86.1195 111.036 83.7819 110.069 81.4292 109.716 80.5641 109.287 79.6125 108.849 78.644 108.39 77.6266 107.95 76.6148 107.562 75.6576L116.7 66.5215C117.775 70.1793 119.049 73.7754 120.518 77.2937 122.09 81.1245 123.926 84.8414 126.013 88.4176ZM107.423 46.6884C113.547 49.4185 120.154 50.9004 126.858 51.0477L117.108 60.7987C110.009 59.2444 103.145 56.7633 96.6924 53.4192 95.0938 52.5785 93.5893 51.7059 92.1544 50.8239L92.1544 37.0483C96.5791 41.2105 101.763 44.4834 107.423 46.6884ZM73.0341 46.773C78.7292 44.5528 83.9427 41.2555 88.3894 37.0615L88.3894 50.7468C80.7029 55.4559 72.2967 58.8737 63.505 60.8646L53.7445 51.1041C60.398 50.9537 66.955 49.4813 73.0341 46.773ZM47.0608 71.4638C49.5218 65.8638 50.8799 59.8419 51.0609 53.7276L60.8401 63.5068C59.711 67.7189 58.2753 71.8429 56.5448 75.8456 54.7591 80.2021 52.6101 84.4008 50.1205 88.3969L36.3243 88.3969C40.9946 83.5235 44.6449 77.7667 47.0608 71.4638ZM46.8896 108.926C44.5024 102.695 40.9015 96.9998 36.2961 92.1713L50.1619 92.1713C52.6398 96.1541 54.7789 100.338 56.556 104.679 58.2633 108.722 59.6756 112.883 60.7818 117.129L50.9537 126.959C50.7758 120.742 49.3956 114.618 46.8896 108.926ZM73.2184 133.974C67.2974 131.358 60.9439 129.858 54.478 129.551 54.1921 129.551 53.9138 129.577 53.6392 129.586L63.4467 119.781C72.2548 121.727 80.682 125.112 88.3894 129.799L88.3894 143.556C83.991 139.421 78.8403 136.168 73.2165 133.974ZM106.793 134.457C101.412 136.599 96.4541 139.68 92.1506 143.556L92.1506 129.799C99.842 125.095 108.258 121.695 117.058 119.736L127.288 129.966C120.22 130.048 113.244 131.579 106.791 134.465ZM134.151 108.399C131.542 114.379 130.124 120.809 129.976 127.332L119.743 117.097C120.855 112.861 122.277 108.712 123.999 104.685 125.778 100.345 127.917 96.1607 130.393 92.177L144.3 92.177C139.885 96.8659 136.437 102.378 134.151 108.399Z" fill="#EE4D2E" transform="matrix(1 0 0 1.00565 23.9529 23.9426)"/></g></g></g></g></g><g><g><g><path d="M166.859 86.6766 148.975 86.6766C144.766 86.6766 138.622 79.143 134.365 68.7645 130.394 59.0793 129.52 50.0689 132.287 47.3401L145.214 34.4154C145.934 33.6955 145.935 32.5278 145.215 31.8075 144.495 31.0871 143.327 31.0866 142.607 31.8065L129.7 44.7128C126.75 47.6204 116.879 46.6119 106.738 42.3675 97.0882 38.3334 90.3438 32.7929 90.3438 28.8989L90.3438 10.1609C90.3438 9.14264 89.5183 8.31716 88.5 8.31716 87.4817 8.31716 86.6563 9.14264 86.6563 10.1609L86.6563 28.8989C86.6563 32.7579 79.7256 38.4569 70.175 42.4524 59.9385 46.7372 50.3491 47.7163 47.3696 44.781L34.397 31.8065C33.6767 31.0866 32.509 31.0871 31.789 31.8075 31.069 32.5278 31.0696 33.6955 31.7899 34.4154L44.781 47.4065C47.5743 50.1611 46.728 58.9041 42.7234 68.6723 38.5141 78.9365 32.1974 86.6766 28.0287 86.6766L10.1406 86.6766C9.12236 86.6766 8.29688 87.502 8.29688 88.5203 8.29688 89.5386 9.12236 90.3641 10.1406 90.3641L28.025 90.3641C32.2066 90.3641 38.315 97.8607 42.5519 108.189 46.551 117.943 47.4323 127.016 44.6464 129.761L31.7863 142.621C31.0659 143.341 31.0654 144.509 31.7853 145.229 32.5053 145.95 33.673 145.95 34.3933 145.23L47.2443 132.381C50.209 129.453 60.1505 130.471 70.3575 134.741 79.9561 138.764 86.6563 144.272 86.6563 148.142L86.6563 166.88C86.6563 167.898 87.4817 168.723 88.5 168.723 89.5183 168.723 90.3438 167.898 90.3438 166.88L90.3438 148.142C90.3438 144.419 96.8301 139.107 106.117 135.221 116.73 130.781 127.058 129.726 130.139 132.765L142.607 145.232C143.327 145.952 144.495 145.952 145.215 145.231 145.935 144.511 145.934 143.343 145.214 142.623L132.73 130.139C129.835 127.287 130.761 117.838 134.929 107.671 139.041 97.6432 144.948 90.3641 148.975 90.3641L166.859 90.3641C167.878 90.3641 168.703 89.5386 168.703 88.5203 168.703 87.502 167.878 86.6766 166.859 86.6766ZM130.958 70.1639C133.313 76.308 136.868 81.9215 141.416 86.6766L127.864 86.6766C125.425 82.7578 123.318 78.6417 121.566 74.3714 119.891 70.4248 118.503 66.3623 117.414 62.2155L127.001 52.628C127.178 58.6737 128.521 64.6282 130.958 70.1639ZM103.359 78.6194C103.768 79.5283 104.172 80.4189 104.504 81.2319 105.256 83.061 106.065 84.877 106.901 86.6766L92.9564 86.6766 102.634 76.9987C102.87 77.5371 103.115 78.0828 103.359 78.6194ZM103.318 98.4563C103.08 98.9725 102.841 99.4961 102.608 100.016L92.9564 90.3641 106.891 90.3641C106.053 92.1728 105.245 93.987 104.506 95.7884 104.172 96.6236 103.744 97.5344 103.318 98.4563ZM73.6965 98.4784C73.2706 97.5565 72.8503 96.6346 72.5055 95.7921 71.7569 93.9686 70.9494 92.158 70.1197 90.3641L84.0529 90.3641 74.3972 100.022C74.1667 99.5054 73.9344 98.9891 73.6965 98.4784ZM73.6486 78.6267C73.892 78.0865 74.1372 77.5408 74.375 76.9969L84.0547 86.6766 70.1123 86.6766C70.953 84.8605 71.7717 83.0425 72.5092 81.2375 72.8392 80.4207 73.2411 79.5302 73.6486 78.6267ZM90.3438 70.8424C93.5574 72.2529 96.701 73.4108 99.8999 74.5133L90.3438 84.075ZM86.6563 84.075 77.1056 74.5115C80.4391 73.3591 83.5311 72.2049 86.66 70.824ZM86.6563 92.9785 86.6563 106.2C83.4426 104.777 80.288 103.593 77.1296 102.494ZM90.3438 92.9785 99.8686 102.503C96.7342 103.593 93.5814 104.777 90.3438 106.213ZM102.806 71.6113C98.5675 70.2323 94.4074 68.624 90.3438 66.7935L90.3438 54.127C91.2325 54.6377 92.1377 55.1429 93.0744 55.6352 99.0015 58.7093 105.274 61.0656 111.759 62.6543ZM86.6563 66.7677C82.5976 68.6124 78.439 70.2288 74.1999 71.6094L65.3222 62.7318C72.7983 60.831 79.9769 57.9102 86.6563 54.0514ZM71.5523 74.1741C71.1706 75.1181 70.7373 76.1119 70.2875 77.1093 69.8615 78.0533 69.443 78.9844 69.0927 79.8381 68.1708 82.1059 67.1273 84.3995 66.0376 86.6766L53.4688 86.6766C55.5142 83.1729 57.3137 79.5313 58.8544 75.7781 60.31 72.3532 61.5822 68.853 62.6654 65.2927ZM66.0431 90.3641C67.118 92.606 68.1487 94.8923 69.0945 97.1859 69.4633 98.0691 69.8966 99.0297 70.3446 100.011 70.7926 100.991 71.2075 101.924 71.5781 102.833L62.6045 111.807C61.5525 108.211 60.3006 104.678 58.8544 101.222 57.3196 97.4811 55.5275 93.8513 53.4909 90.3585ZM74.2331 105.4C78.4617 106.785 82.6092 108.406 86.6563 110.256L86.6563 122.952C79.9522 119.129 72.7562 116.242 65.2688 114.372ZM90.3438 110.256C94.3925 108.407 98.5405 106.784 102.769 105.394L111.705 114.329C104.224 116.211 97.036 119.112 90.3438 122.95ZM105.422 102.833C105.791 101.921 106.22 100.962 106.665 99.9995 107.109 99.037 107.551 98.0672 107.915 97.1878 108.837 94.9236 109.875 92.6356 110.962 90.3659L123.515 90.3659C121.48 93.8565 119.689 97.4839 118.155 101.222 116.704 104.67 115.444 108.195 114.379 111.781ZM110.97 86.6766C109.893 84.4309 108.859 82.1391 107.911 79.8326 107.564 78.9844 107.144 78.0515 106.714 77.102 106.265 76.1045 105.833 75.1125 105.453 74.1741L114.412 65.2171C115.466 68.8032 116.715 72.3288 118.155 75.7781 119.696 79.5339 121.496 83.1778 123.542 86.6839ZM105.317 45.7729C111.321 48.4495 117.798 49.9024 124.37 50.0468L114.812 59.6066C107.852 58.0827 101.122 55.6503 94.7964 52.3717 93.2292 51.5476 91.7542 50.6921 90.3475 49.8274L90.3475 36.3219C94.6854 40.4025 99.7674 43.6111 105.317 45.7729ZM71.602 45.8559C77.1855 43.6792 82.2967 40.4465 86.6563 36.3348L86.6563 49.7518C79.1205 54.3685 70.8791 57.7193 62.2598 59.6711L52.6907 50.1021C59.2137 49.9546 65.6421 48.5111 71.602 45.8559ZM46.138 70.0625C48.5507 64.5724 49.8823 58.6685 50.0597 52.6741L59.6472 62.2616C58.5402 66.3911 57.1327 70.4342 55.436 74.3585 53.6854 78.6295 51.5785 82.7459 49.1378 86.6636L35.612 86.6636C40.1908 81.8857 43.7695 76.2418 46.138 70.0625ZM45.9702 106.79C43.6298 100.681 40.0995 95.0979 35.5844 90.3641L49.1784 90.3641C51.6077 94.2687 53.7048 98.3709 55.4471 102.627 57.1209 106.59 58.5055 110.669 59.59 114.832L49.9546 124.47C49.7802 118.374 48.427 112.371 45.9702 106.79ZM71.7827 131.347C65.9779 128.782 59.7489 127.312 53.4098 127.01 53.1295 127.01 52.8566 127.036 52.5874 127.045L62.2026 117.432C70.838 119.34 79.1 122.659 86.6563 127.254L86.6563 140.741C82.3441 136.687 77.2944 133.498 71.7809 131.347ZM104.699 131.821C99.4235 133.92 94.5628 136.941 90.3438 140.741L90.3438 127.254C97.8843 122.643 106.135 119.309 114.762 117.388L124.792 127.418C117.863 127.498 111.024 128.999 104.697 131.828ZM131.52 106.274C128.963 112.136 127.572 118.44 127.427 124.835L117.395 114.801C118.485 110.648 119.88 106.581 121.568 102.632 123.311 98.3772 125.408 94.2752 127.836 90.3696L141.471 90.3696C137.143 94.9666 133.761 100.371 131.52 106.274Z" fill="#EE4D2E" transform="matrix(1 0 0 1.00565 411 107)"/></g></g></g><g clip-path="url(#clip7)" filter="url(#fx2)" transform="translate(-102 -71)"><g><path d="M23.65 0 23.65-190.575 138.6-190.575 138.6-167.75 50.325-167.75 50.325-110.275 128.7-110.275 128.7-87.725 50.325-87.725 50.325 0Z" fill="#FFFFFF" transform="matrix(1 0 0 1 178.759 370)"/></g></g><text fill="#FFFFFF" font-family="Ubuntu,Ubuntu_MSFontService,sans-serif" font-weight="400" font-size="275" transform="matrix(1 0 0 1 68.1888 290)">F</text><g clip-path="url(#clip8)" filter="url(#fx3)" transform="translate(46 -71)"><g><path d="M74.25-192.5C101.017-192.5 121.596-187.412 135.987-177.237 150.379-167.062 157.575-151.892 157.575-131.725 157.575-120.725 155.604-111.329 151.662-103.537 147.721-95.7458 142.037-89.4208 134.612-84.5625 127.187-79.7042 118.158-76.175 107.525-73.975 96.8917-71.775 84.8833-70.675 71.5-70.675L50.325-70.675 50.325 0 23.65 0 23.65-187.825C31.1667-189.658 39.5542-190.896 48.8125-191.537 58.0708-192.179 66.55-192.5 74.25-192.5ZM76.45-169.125C65.0833-169.125 56.375-168.85 50.325-168.3L50.325-93.5 70.4-93.5C79.5667-93.5 87.8167-94.0958 95.15-95.2875 102.483-96.4791 108.671-98.4958 113.712-101.337 118.754-104.179 122.65-108.075 125.4-113.025 128.15-117.975 129.525-124.3 129.525-132 129.525-139.333 128.104-145.383 125.262-150.15 122.421-154.917 118.571-158.721 113.712-161.562 108.854-164.404 103.217-166.375 96.8-167.475 90.3833-168.575 83.6-169.125 76.45-169.125Z" fill="#EE4D2E" transform="matrix(1 0 0 1 178.572 370)"/></g></g><text fill="#EE4D2E" font-family="Ubuntu,Ubuntu_MSFontService,sans-serif" font-weight="400" font-size="275" transform="matrix(1 0 0 1 216.001 290)">P</text><g clip-path="url(#clip9)" filter="url(#fx4)" transform="translate(213 -71)"><g><path d="M105.6 4.125C92.2167 4.125 80.025 1.925 69.025-2.475 58.025-6.875 48.5833-13.2917 40.7-21.725 32.8167-30.1583 26.7208-40.5625 22.4125-52.9375 18.1042-65.3125 15.95-79.475 15.95-95.425 15.95-111.375 18.3792-125.537 23.2375-137.912 28.0958-150.287 34.65-160.692 42.9-169.125 51.15-177.558 60.775-183.975 71.775-188.375 82.775-192.775 94.5083-194.975 106.975-194.975 114.858-194.975 121.962-194.425 128.287-193.325 134.612-192.225 140.112-190.942 144.787-189.475 149.462-188.008 153.267-186.542 156.2-185.075 159.133-183.608 161.15-182.508 162.25-181.775L154.55-159.775C152.9-160.875 150.517-162.067 147.4-163.35 144.283-164.633 140.754-165.917 136.812-167.2 132.871-168.483 128.562-169.537 123.887-170.362 119.212-171.187 114.492-171.6 109.725-171.6 99.6417-171.6 90.5667-169.858 82.5-166.375 74.4333-162.892 67.5583-157.85 61.875-151.25 56.1917-144.65 51.8375-136.629 48.8125-127.187 45.7875-117.746 44.275-107.158 44.275-95.425 44.275-84.0583 45.6042-73.7 48.2625-64.35 50.9208-55 54.9083-46.9792 60.225-40.2875 65.5417-33.5958 72.1875-28.4167 80.1625-24.75 88.1375-21.0833 97.4417-19.25 108.075-19.25 120.358-19.25 130.533-20.5333 138.6-23.1 146.667-25.6667 152.717-27.9583 156.75-29.975L163.625-7.975C162.342-7.05833 160.05-5.9125 156.75-4.5375 153.45-3.1625 149.325-1.83333 144.375-0.55 139.425 0.733333 133.65 1.83333 127.05 2.75 120.45 3.66667 113.3 4.125 105.6 4.125ZM335.454 0C332.337-8.25 329.404-16.3625 326.654-24.3375 323.904-32.3125 321.062-40.425 318.129-48.675L231.779-48.675 214.454 0 186.679 0C194.012-20.1667 200.887-38.8208 207.304-55.9625 213.721-73.1042 220-89.375 226.142-104.775 232.283-120.175 238.379-134.887 244.429-148.912 250.479-162.937 256.804-176.825 263.404-190.575L287.879-190.575C294.479-176.825 300.804-162.937 306.854-148.912 312.904-134.887 319-120.175 325.142-104.775 331.283-89.375 337.562-73.1042 343.979-55.9625 350.396-38.8208 357.271-20.1667 364.604 0ZM310.429-70.675C304.562-86.625 298.742-102.071 292.967-117.012 287.192-131.954 281.187-146.3 274.954-160.05 268.537-146.3 262.442-131.954 256.667-117.012 250.892-102.071 245.162-86.625 239.479-70.675ZM454.667-192.5C481.433-192.5 502.012-187.412 516.404-177.237 530.796-167.062 537.992-151.892 537.992-131.725 537.992-120.725 536.021-111.329 532.079-103.537 528.137-95.7458 522.454-89.4208 515.029-84.5625 507.604-79.7042 498.575-76.175 487.942-73.975 477.308-71.775 465.3-70.675 451.917-70.675L430.742-70.675 430.742 0 404.067 0 404.067-187.825C411.583-189.658 419.971-190.896 429.229-191.537 438.487-192.179 446.967-192.5 454.667-192.5ZM456.867-169.125C445.5-169.125 436.792-168.85 430.742-168.3L430.742-93.5 450.817-93.5C459.983-93.5 468.233-94.0958 475.567-95.2875 482.9-96.4791 489.087-98.4958 494.129-101.337 499.171-104.179 503.067-108.075 505.817-113.025 508.567-117.975 509.942-124.3 509.942-132 509.942-139.333 508.521-145.383 505.679-150.15 502.837-154.917 498.987-158.721 494.129-161.562 489.271-164.404 483.633-166.375 477.217-167.475 470.8-168.575 464.017-169.125 456.867-169.125Z" fill="#FFFFFF" transform="matrix(1 0 0 1 178.863 370)"/></g></g><text fill="#FFFFFF" font-family="Ubuntu,Ubuntu_MSFontService,sans-serif" font-weight="400" font-size="275" transform="matrix(1 0 0 1 383.293 290)">CAP</text></g></svg>