<svg width="1653" height="993" xmlns="http://www.w3.org/2000/svg" xmlns:xlink="http://www.w3.org/1999/xlink" xml:space="preserve" overflow="hidden"><defs><clipPath id="clip0"><rect x="3015" y="1472" width="1653" height="993"/></clipPath></defs><g clip-path="url(#clip0)" transform="translate(-3015 -1472)"><rect x="3016" y="1473" width="1650" height="990" fill="#FFFFFF"/><g><path d="M3655.62 1638.5 3655.62 2267.5M3810.63 1638.5 3810.63 2267.5M3964.63 1638.5 3964.63 2267.5M4118.64 1638.5 4118.64 2267.5M4272.64 1638.5 4272.64 2267.5M4426.65 1638.5 4426.65 2267.5M4580.5 1638.5 4580.5 2267.5" stroke="#D9D9D9" stroke-width="3.4375" stroke-linejoin="round" stroke-miterlimit="10" fill="none"/></g><g><rect x="3502" y="2161" width="85" height="55.9998" fill="#EE4D2E"/></g><g><rect x="3502" y="2004" width="912" height="54.9999" fill="#EE4D2E"/></g><g><rect x="3502" y="1846" width="78" height="56" fill="#595959"/></g><g><rect x="3502" y="1689" width="91.9998" height="56" fill="#595959"/></g><g><path d="M0 0 0.000360892 629" stroke="#D9D9D9" stroke-width="3.4375" stroke-linejoin="round" stroke-miterlimit="10" fill="none" fill-rule="evenodd" transform="matrix(1 0 0 -1 3501.5 2267.5)"/></g><g><text fill="#404040" font-family="Ubuntu,Ubuntu_MSFontService,sans-serif" font-weight="400" font-size="41" transform="matrix(1 0 0 1 3614.17 2205)">55</text></g><g><text fill="#404040" font-family="Ubuntu,Ubuntu_MSFontService,sans-serif" font-weight="400" font-size="41" transform="matrix(1 0 0 1 4441.92 2048)">592</text></g><g><text fill="#404040" font-family="Ubuntu,Ubuntu_MSFontService,sans-serif" font-weight="400" font-size="41" transform="matrix(1 0 0 1 3608 1891)">51</text></g><g><text fill="#404040" font-family="Ubuntu,Ubuntu_MSFontService,sans-serif" font-weight="400" font-size="41" transform="matrix(1 0 0 1 3621.87 1733)">60</text></g><g><text fill="#595959" font-family="Ubuntu,Ubuntu_MSFontService,sans-serif" font-weight="400" font-size="41" transform="matrix(1 0 0 1 3490.26 2331)">0</text></g><g><text fill="#595959" font-family="Ubuntu,Ubuntu_MSFontService,sans-serif" font-weight="400" font-size="41" transform="matrix(1 0 0 1 3621.14 2331)">100</text></g><g><text fill="#595959" font-family="Ubuntu,Ubuntu_MSFontService,sans-serif" font-weight="400" font-size="41" transform="matrix(1 0 0 1 3775.28 2331)">200</text></g><g><text fill="#595959" font-family="Ubuntu,Ubuntu_MSFontService,sans-serif" font-weight="400" font-size="41" transform="matrix(1 0 0 1 3929.43 2331)">300</text></g><g><text fill="#595959" font-family="Ubuntu,Ubuntu_MSFontService,sans-serif" font-weight="400" font-size="41" transform="matrix(1 0 0 1 4083.57 2331)">400</text></g><g><text fill="#595959" font-family="Ubuntu,Ubuntu_MSFontService,sans-serif" font-weight="400" font-size="41" transform="matrix(1 0 0 1 4237.72 2331)">500</text></g><g><text fill="#595959" font-family="Ubuntu,Ubuntu_MSFontService,sans-serif" font-weight="400" font-size="41" transform="matrix(1 0 0 1 4391.86 2331)">600</text></g><g><text fill="#595959" font-family="Ubuntu,Ubuntu_MSFontService,sans-serif" font-weight="400" font-size="41" transform="matrix(1 0 0 1 4546.01 2331)">700</text></g><g><text fill="#595959" font-family="Ubuntu,Ubuntu_MSFontService,sans-serif" font-weight="400" font-size="41" transform="matrix(1 0 0 1 3187.64 2202)">fpcap (pcapng)</text></g><g><text fill="#595959" font-family="Ubuntu,Ubuntu_MSFontService,sans-serif" font-weight="400" font-size="41" transform="matrix(1 0 0 1 3074.57 2045)">fpcap-fread (pcapng)</text></g><g><text fill="#595959" font-family="Ubuntu,Ubuntu_MSFontService,sans-serif" font-weight="400" font-size="41" transform="matrix(1 0 0 1 3046 1888)">PcapPlusPlus (pcapng)</text></g><g><text fill="#595959" font-family="Ubuntu,Ubuntu_MSFontService,sans-serif" font-weight="400" font-size="41" transform="matrix(1 0 0 1 3157.6 1731)">libpcap (pcapng)</text></g><g><text fill="#595959" font-family="Ubuntu,Ubuntu_MSFontService,sans-serif" font-weight="400" font-size="46" transform="matrix(1 0 0 1 3892.62 2397)"># of iterations</text></g><g><text fill="#595959" font-family="Ubuntu,Ubuntu_MSFontService,sans-serif" font-weight="400" font-size="64" transform="matrix(1 0 0 1 3726.22 1569)">PcapNG </text></g><rect x="3016.5" y="1473.5" width="1650" height="990" stroke="#D9D9D9" stroke-width="3.4375" stroke-linejoin="round" stroke-miterlimit="10" fill="none"/></g></svg>