<svg width="1653" height="993" xmlns="http://www.w3.org/2000/svg" xmlns:xlink="http://www.w3.org/1999/xlink" xml:space="preserve" overflow="hidden"><defs><clipPath id="clip0"><rect x="3010" y="441" width="1653" height="993"/></clipPath><clipPath id="clip1"><rect x="3449" y="607" width="1130" height="632"/></clipPath><clipPath id="clip2"><rect x="3449" y="607" width="1130" height="632"/></clipPath><clipPath id="clip3"><rect x="3449" y="607" width="1130" height="632"/></clipPath><clipPath id="clip4"><rect x="3449" y="607" width="1130" height="632"/></clipPath></defs><g clip-path="url(#clip0)" transform="translate(-3010 -441)"><rect x="3011" y="442" width="1650" height="990" fill="#FFFFFF"/><g><path d="M3674.62 607.5 3674.62 1236.5M3899.63 607.5 3899.63 1236.5M4124.64 607.5 4124.64 1236.5M4350.64 607.5 4350.64 1236.5M4575.5 607.5 4575.5 1236.5" stroke="#D9D9D9" stroke-width="3.4375" stroke-linejoin="round" stroke-miterlimit="10" fill="none"/></g><g clip-path="url(#clip1)"><rect x="3449" y="1130" width="117" height="55" fill="#EE4D2E"/></g><g clip-path="url(#clip2)"><rect x="3449" y="972" width="1030" height="56" fill="#EE4D2E"/></g><g clip-path="url(#clip3)"><rect x="3449" y="815" width="135" height="56.0001" fill="#595959"/></g><g clip-path="url(#clip4)"><rect x="3449" y="658" width="133" height="56.0001" fill="#595959"/></g><g><path d="M0 0 0.000360892 629" stroke="#D9D9D9" stroke-width="3.4375" stroke-linejoin="round" stroke-miterlimit="10" fill="none" fill-rule="evenodd" transform="matrix(1 0 0 -1 3449.5 1236.5)"/></g><g><text fill="#404040" font-family="Ubuntu,Ubuntu_MSFontService,sans-serif" font-weight="400" font-size="41" transform="matrix(1 0 0 1 3593.88 1174)">52</text></g><g><text fill="#404040" font-family="Ubuntu,Ubuntu_MSFontService,sans-serif" font-weight="400" font-size="41" transform="matrix(1 0 0 1 4506.36 1017)">457</text></g><g><text fill="#404040" font-family="Ubuntu,Ubuntu_MSFontService,sans-serif" font-weight="400" font-size="41" transform="matrix(1 0 0 1 3611.91 859)">60</text></g><g><text fill="#404040" font-family="Ubuntu,Ubuntu_MSFontService,sans-serif" font-weight="400" font-size="41" transform="matrix(1 0 0 1 3609.65 702)">59</text></g><g><text fill="#595959" font-family="Ubuntu,Ubuntu_MSFontService,sans-serif" font-weight="400" font-size="41" transform="matrix(1 0 0 1 3437.59 1300)">0</text></g><g><text fill="#595959" font-family="Ubuntu,Ubuntu_MSFontService,sans-serif" font-weight="400" font-size="41" transform="matrix(1 0 0 1 3639.64 1300)">100</text></g><g><text fill="#595959" font-family="Ubuntu,Ubuntu_MSFontService,sans-serif" font-weight="400" font-size="41" transform="matrix(1 0 0 1 3864.94 1300)">200</text></g><g><text fill="#595959" font-family="Ubuntu,Ubuntu_MSFontService,sans-serif" font-weight="400" font-size="41" transform="matrix(1 0 0 1 4090.24 1300)">300</text></g><g><text fill="#595959" font-family="Ubuntu,Ubuntu_MSFontService,sans-serif" font-weight="400" font-size="41" transform="matrix(1 0 0 1 4315.55 1300)">400</text></g><g><text fill="#595959" font-family="Ubuntu,Ubuntu_MSFontService,sans-serif" font-weight="400" font-size="41" transform="matrix(1 0 0 1 4540.85 1300)">500</text></g><g><text fill="#595959" font-family="Ubuntu,Ubuntu_MSFontService,sans-serif" font-weight="400" font-size="41" transform="matrix(1 0 0 1 3182.49 1171)">fpcap (pcap)</text></g><g><text fill="#595959" font-family="Ubuntu,Ubuntu_MSFontService,sans-serif" font-weight="400" font-size="41" transform="matrix(1 0 0 1 3069.42 1014)">fpcap-fread (pcap)</text></g><g><text fill="#595959" font-family="Ubuntu,Ubuntu_MSFontService,sans-serif" font-weight="400" font-size="41" transform="matrix(1 0 0 1 3040.84 857)">PcapPlusPlus (pcap)</text></g><g><text fill="#595959" font-family="Ubuntu,Ubuntu_MSFontService,sans-serif" font-weight="400" font-size="41" transform="matrix(1 0 0 1 3152.44 699)">libpcap (pcap)</text></g><g><text fill="#595959" font-family="Ubuntu,Ubuntu_MSFontService,sans-serif" font-weight="400" font-size="46" transform="matrix(1 0 0 1 3863.71 1366)"># of iterations</text></g><g><text fill="#595959" font-family="Ubuntu,Ubuntu_MSFontService,sans-serif" font-weight="400" font-size="64" transform="matrix(1 0 0 1 3755.89 538)">PCAP </text></g><rect x="3011.5" y="442.5" width="1650" height="990" stroke="#D9D9D9" stroke-width="3.4375" stroke-linejoin="round" stroke-miterlimit="10" fill="none"/></g></svg>